# xmcd
#
# Track frame offsets:
#	150
#	20092
#	41077
#	57335
#	87947
#	110065
#	131870
#	156477
#	191252
#	214820
#	238415
#	274222
#
# Disc length: 4086 seconds
#
# Revision: 5
# Processed by: cddbd v1.4PL0 Copyright (c) Steve Scherf et al.
# Submitted via: audiograbber 1.81.03
#
DISCID=bb0ff40c
DTITLE=Various Artist - The Harp Legends - 1
DYEAR=1997
DGENRE=Blues
TTITLE0=Walter Horton - Two Old Maids
TTITLE1=Carey Bell - 85%
TTITLE2=Walter Horton - Walter's Shuffle
TTITLE3=Carey Bell - Crosscut Saw
TTITLE4=Walter Horton - Little Boy Blue
TTITLE5=Carey Bell - Blues With A Feeling
TTITLE6=Walter Horton - I Cry For You
TTITLE7=Carey Bell - Second Hand Man
TTITLE8=Walter Horton - Country Girl
TTITLE9=Carey Bell - Last Night
TTITLE10=Walter Horton - Walter's Swing
TTITLE11=Carey Bell - Hoochie Coochie
EXTD=
EXTT0=
EXTT1=
EXTT2=
EXTT3=
EXTT4=
EXTT5=
EXTT6=
EXTT7=
EXTT8=
EXTT9=
EXTT10=
EXTT11=
PLAYORDER=
